%
M48
M72
T01C0.01969
T02C0.02362
T03C0.02756
T04C0.03150
T05C0.03543
T06C0.03800
T07C0.03937
T08C0.05118
T09C0.08661
T10C0.13780
%
T01
X145900Y115700
X145900Y120100
X145900Y124600
X151800Y124600
X165200Y124600
X169900Y156500
X177200Y158100
X146500Y179000
X139000Y169000
X178800Y198300
X178800Y207700
X169000Y206500
X207900Y222500
X219900Y206900
X234000Y207000
X252600Y212300
X261400Y199800
X267300Y222300
X262300Y250900
X257100Y250900
X257100Y261100
X253100Y266500
X258900Y269100
X258800Y286200
X264800Y286200
X270900Y286200
X251600Y298100
X238400Y300300
X229800Y299100
X229800Y305100
X214300Y267700
X219000Y264000
X237500Y251600
X196400Y255300
X162600Y261900
X139600Y273700
X186500Y296500
X157800Y316500
X139800Y314300
X182400Y363700
X178400Y367100
X173000Y367300
X206400Y375500
X214000Y377300
X220000Y356900
X242800Y363900
X240000Y379100
X273400Y376900
X290000Y390700
X468700Y259100
X489800Y263900
X477800Y282700
X479200Y299700
X476500Y312200
X476500Y317200
X476500Y322200
X475200Y330500
X511500Y322200
X511500Y317200
X511500Y312200
X549000Y312200
X549000Y317200
X549000Y322200
X547600Y331300
X581500Y322200
X581500Y317200
X581500Y312200
X581500Y307200
X581500Y302200
X598200Y301700
X619000Y307200
X636400Y310900
X638400Y335300
X638800Y354900
X619000Y376400
X600900Y372700
X598800Y351100
X599200Y332700
X550000Y299700
X547800Y264500
X557000Y263300
X536700Y262200
X544800Y224100
X553800Y225900
X598900Y205700
X603600Y191100
X618900Y198400
X619200Y208100
X618800Y242800
X618600Y260100
X619000Y281000
X602600Y279000
X635200Y282700
X547200Y380900
X599200Y411100
X593600Y416300
X597400Y436100
X564200Y442100
X398500Y228500
X421000Y206700
X453000Y176300
X478800Y160500
X508800Y160500
X508800Y155300
X525000Y131500
X515400Y128100
X499400Y109100
X512600Y105100
X540800Y118500
X546600Y103500
X551200Y79300
X581400Y85900
X586600Y73100
X589000Y66300
X583000Y66500
X549400Y51500
X494000Y72600
X481500Y78800
X474000Y78800
X466500Y78800
X459000Y78800
X431800Y72300
X399000Y65900
X429000Y46700
X439000Y44900
X469000Y31100
X479000Y30900
X397600Y31100
X387200Y32300
X363900Y75600
X341500Y86500
X364000Y111500
X369000Y133100
X364200Y136700
X358200Y136500
X353500Y136500
X347200Y167700
X342600Y170300
X311800Y167300
X306800Y169700
X290600Y135100
X296600Y130700
X274600Y122500
X264000Y109000
X239200Y103700
X214200Y110900
X227200Y134700
X230200Y146900
X228600Y161700
X216200Y160900
X215000Y148300
X132000Y214700
X325000Y218700
X332400Y218700
X340500Y223000
X333400Y229000
X326000Y228000
X378000Y169700
X383200Y167500
X413800Y168300
X419200Y168800
X420600Y137500
X452400Y110100
X456600Y105900
X464200Y128300
X478800Y128000
X545400Y136100
X569000Y149250
X588750Y149250
X604000Y136500
X618700Y138300
X621500Y125900
X622200Y116100
X615800Y103400
X614000Y95800
X598700Y104200
X595400Y109300
X584800Y99700
X604000Y122900
X619000Y161300
X526800Y180700
X491200Y197500
X275900Y71800
X262000Y54900
X241100Y41700
T02
X194000Y116500
X94000Y171500
X86500Y171500
X79000Y171500
X71500Y171500
X64000Y171500
X64000Y179000
X64000Y186500
X71500Y186500
X71500Y179000
X79000Y179000
X79000Y186500
X86500Y186500
X86500Y179000
X94000Y179000
X94000Y186500
X94000Y224000
X94000Y231500
X86500Y231500
X86500Y224000
X79000Y224000
X79000Y231500
X71500Y231500
X71500Y224000
X64000Y224000
X64000Y231500
X64000Y239000
X71500Y239000
X79000Y239000
X86500Y239000
X94000Y239000
X94000Y276500
X86500Y276500
X79000Y276500
X71500Y276500
X64000Y276500
X64000Y284000
X64000Y291500
X71500Y291500
X71500Y284000
X79000Y284000
X79000Y291500
X86500Y291500
X86500Y284000
X94000Y284000
X94000Y291500
X94000Y329000
X94000Y336500
X86500Y336500
X86500Y329000
X79000Y329000
X79000Y336500
X71500Y336500
X71500Y329000
X64000Y329000
X64000Y336500
X64000Y344000
X71500Y344000
X79000Y344000
X86500Y344000
X94000Y344000
X426200Y143900
X417000Y86700
X439400Y86700
X511400Y257700
X519000Y258100
X456600Y263700
X582600Y258300
T03
X23400Y78700
X23400Y86200
X23400Y93700
X23400Y101200
X23400Y108700
X23400Y116200
X23400Y123700
X23400Y131200
X23400Y138700
X23400Y146200
X23400Y153700
X23400Y161200
X23400Y168700
X23400Y176200
X23400Y183700
X23400Y191200
X23400Y198700
X23400Y206200
X23400Y213700
X23400Y221200
X23400Y228700
X23400Y236200
X23400Y243700
X23400Y251200
X23400Y258700
X23400Y266200
X23400Y273700
X23400Y281200
X23400Y288700
X23400Y296200
X23400Y303700
X23400Y311200
X23400Y318700
X23400Y326200
X23400Y333700
X23400Y341200
X23400Y348700
X23400Y356200
X23400Y363700
X23400Y371200
X23400Y378700
X23400Y386200
X23400Y393700
X23400Y401200
X23400Y408700
X23400Y416200
X179800Y468700
X187300Y468700
X194800Y468700
X202300Y468700
X209800Y468700
X217300Y468700
X224800Y468700
X232300Y468700
X239800Y468700
X247300Y468700
X254800Y468700
X262300Y468700
X269800Y468700
X277300Y468700
X284800Y468700
X292300Y468700
X299800Y468700
X307300Y468700
X314800Y468700
X322300Y468700
X329800Y468700
X337300Y468700
X344800Y468700
X352300Y468700
X359800Y468700
X367300Y468700
X374800Y468700
X382300Y468700
X389800Y468700
X397300Y468700
X404800Y468700
X412300Y468700
X419800Y468700
X427300Y468700
X434800Y468700
X442300Y468700
X449800Y468700
X457300Y468700
X464800Y468700
X472300Y468700
X479800Y468700
X487300Y468700
X494800Y468700
X502300Y468700
X509800Y468700
X517300Y468700
X650900Y413700
X650900Y406200
X650900Y398700
X650900Y391200
X650900Y383700
X650900Y376200
X650900Y368700
X650900Y361200
X650900Y353700
X650900Y346200
X650900Y338700
X650900Y331200
X650900Y323700
X650900Y316200
X650900Y308700
X650900Y301200
X650900Y293700
X650900Y286200
X650900Y278700
X650900Y271200
X650900Y263700
X650900Y256200
X650900Y248700
X650900Y241200
X650900Y233700
X650900Y226200
X650900Y218700
X650900Y211200
X650900Y203700
X650900Y196200
X650900Y188700
X650900Y181200
X650900Y173700
X650900Y166200
X650900Y158700
X650900Y151200
X650900Y143700
X650900Y136200
X650900Y128700
X650900Y121200
X650900Y113700
X650900Y106200
X650900Y98700
X650900Y91200
X650900Y83700
X650900Y76200
T04
X519100Y138000
X509100Y138000
X499100Y138000
X489100Y138000
X479100Y138000
X469100Y138000
X459100Y138000
X449100Y138000
X449100Y188000
X459100Y188000
X469100Y188000
X479100Y188000
X489100Y188000
X499100Y188000
X509100Y188000
X519100Y188000
X504244Y398539
X494244Y398539
X484244Y398539
X474244Y398539
X464244Y398539
X454244Y398539
X444244Y398539
X434244Y398539
X424244Y398539
X414244Y398539
X404244Y398539
X394244Y398539
X384244Y398539
X374244Y398539
X364244Y398539
X354244Y398539
X344244Y398539
X334244Y398539
X324244Y398539
X324244Y408539
X334244Y408539
X344244Y408539
X354244Y408539
X364244Y408539
X374244Y408539
X384244Y408539
X394244Y408539
X404244Y408539
X414244Y408539
X424244Y408539
X434244Y408539
X444244Y408539
X454244Y408539
X464244Y408539
X474244Y408539
X484244Y408539
X494244Y408539
X504244Y408539
X504283Y432161
X494283Y432161
X484283Y432161
X474283Y432161
X464283Y432161
X454283Y432161
X444283Y432161
X434283Y432161
X424283Y432161
X414283Y432161
X404283Y432161
X394283Y432161
X384283Y432161
X374283Y432161
X364283Y432161
X354283Y432161
X344283Y432161
X334283Y432161
X324283Y432161
X324283Y442161
X334283Y442161
X344283Y442161
X354283Y442161
X364283Y442161
X374283Y442161
X384283Y442161
X394283Y442161
X404283Y442161
X414283Y442161
X424283Y442161
X434283Y442161
X444283Y442161
X454283Y442161
X464283Y442161
X474283Y442161
X484283Y442161
X494283Y442161
X504283Y442161
X262000Y442122
X252000Y442122
X242000Y442161
X232039Y442161
X222118Y442161
X212000Y442122
X212039Y432240
X222039Y432122
X232039Y432122
X242000Y432122
X252039Y432083
X262039Y432122
X262000Y408500
X252000Y408500
X252000Y398500
X262000Y398500
X242000Y398500
X232000Y398500
X232000Y408500
X242000Y408500
X222000Y408500
X212000Y408500
X212000Y398500
X222000Y398500
X202000Y398500
X192000Y398500
X192000Y408500
X202000Y408500
X202000Y432122
X191961Y432083
X191843Y442122
X202039Y442161
X194000Y49000
T05
X380800Y310900
T06
X379000Y116500
X389000Y116500
X399000Y116500
X409000Y116500
X419000Y116500
X429000Y116500
X439000Y116500
X449000Y116500
X459000Y116500
X469000Y116500
X479000Y116500
X489000Y116500
X499000Y116500
X509000Y116500
X519000Y116500
X529000Y116500
X504000Y104000
X494000Y104000
X484000Y104000
X474000Y104000
X464000Y104000
X479000Y66500
X479000Y56500
X469000Y56500
X459000Y56500
X449000Y56500
X439000Y56500
X429000Y56500
X419000Y56500
X409000Y56500
X399000Y56500
X389000Y56500
X379000Y56500
X369000Y56500
X359000Y56500
X349000Y56500
X339000Y56500
X329000Y56500
X319000Y56500
X309000Y56500
X299000Y56500
X349000Y66500
X349000Y76500
X349000Y86500
X349000Y96500
X349000Y106500
X349000Y116500
X339000Y116500
X329000Y116500
X319000Y116500
X309000Y116500
X299000Y116500
X359000Y116500
X369000Y116500
X489000Y66500
X499000Y66500
X499000Y56500
X489000Y56500
X509000Y56500
X519000Y56500
X519000Y66500
X529000Y56500
T07
X379000Y71500
X369000Y71500
X359000Y71500
X339000Y71500
X329000Y71500
X319000Y71500
X309000Y71500
X309000Y101500
X319000Y101500
X329000Y101500
X339000Y101500
X359000Y101500
X369000Y101500
X379000Y101500
T08
X535740Y398500
X558142Y398500
X547866Y421335
X558181Y432161
X535701Y432122
X160504Y432122
X148732Y421728
X136882Y432122
X126055Y421728
X114835Y432122
X114835Y398500
X136882Y398500
X160504Y398461
T09
X97945Y419366
X577039Y420232
T10
X585740Y451453
X293457Y451453
X87709Y451492
M30
