G75*
%MOIN*%
%OFA0B0*%
%FSLAX25Y25*%
%IPPOS*%
%LPD*%
%AMOC8*
5,1,8,0,0,1.08239X$1,22.5*
%
%ADD10R,0.15900X0.73300*%
%ADD11R,0.10600X1.25500*%
%ADD12R,0.05918X0.06706*%
%ADD13R,0.06706X0.05918*%
%ADD14R,0.12611X0.06312*%
%ADD15R,0.06312X0.12611*%
%ADD16R,0.06312X0.06312*%
%ADD17R,0.43320X0.41784*%
%ADD18R,0.05000X0.09300*%
%ADD19R,0.07099X0.05918*%
%ADD20R,0.14580X0.12414*%
%ADD21R,0.08674X0.07493*%
%ADD22R,0.03500X0.06100*%
%ADD23C,0.05950*%
%ADD24C,0.06600*%
%ADD25C,0.06737*%
%ADD26R,0.02572X0.06706*%
%ADD27R,0.05524X0.05524*%
%ADD28R,0.22060X0.25209*%
%ADD29R,0.04737X0.07099*%
%ADD30R,0.07493X0.10643*%
%ADD31R,0.10643X0.07493*%
%ADD32R,0.04934X0.03162*%
%ADD33R,0.07887X0.13398*%
%ADD34R,0.07099X0.08674*%
%ADD35R,0.03162X0.09461*%
%ADD36R,0.10249X0.10249*%
%ADD37C,0.00632*%
%ADD38C,0.03359*%
%ADD39C,0.05950*%
%ADD40C,0.14580*%
%ADD41C,0.08477*%
%ADD42C,0.09461*%
%ADD43R,0.14186X0.04737*%
%ADD44R,0.38595X0.27572*%
%ADD45C,0.05156*%
%ADD46C,0.06115*%
%ADD47C,0.04762*%
%ADD48C,0.05550*%
D10*
X0039450Y0107350D03*
D11*
X0639300Y0146250D03*
D12*
X0594740Y0176900D03*
X0587260Y0176900D03*
X0587060Y0186300D03*
X0594540Y0186300D03*
X0594540Y0195700D03*
X0587060Y0195700D03*
X0608260Y0214700D03*
X0615740Y0214700D03*
X0615540Y0233500D03*
X0608060Y0233500D03*
X0608140Y0243200D03*
X0608060Y0252300D03*
X0615540Y0252300D03*
X0600660Y0243200D03*
X0573340Y0237900D03*
X0565860Y0237900D03*
X0565760Y0228500D03*
X0573240Y0228500D03*
X0554140Y0255700D03*
X0546660Y0255700D03*
X0532240Y0238100D03*
X0524760Y0238100D03*
X0524660Y0228500D03*
X0532140Y0228500D03*
X0502340Y0228700D03*
X0494860Y0228700D03*
X0494860Y0238200D03*
X0502340Y0238200D03*
X0482440Y0255600D03*
X0474960Y0255600D03*
X0461940Y0238100D03*
X0454460Y0238100D03*
X0454660Y0228500D03*
X0462140Y0228500D03*
X0462440Y0282400D03*
X0454960Y0282400D03*
X0454860Y0292100D03*
X0462340Y0292100D03*
X0455140Y0304600D03*
X0447660Y0304600D03*
X0447660Y0313700D03*
X0455140Y0313700D03*
X0485060Y0313700D03*
X0492540Y0313700D03*
X0492640Y0304500D03*
X0485160Y0304500D03*
X0493860Y0292100D03*
X0501340Y0292100D03*
X0501440Y0282400D03*
X0493960Y0282400D03*
X0523760Y0282900D03*
X0531240Y0282900D03*
X0531240Y0292500D03*
X0523760Y0292500D03*
X0527440Y0304300D03*
X0519960Y0304300D03*
X0520060Y0313500D03*
X0527540Y0313500D03*
X0556460Y0313700D03*
X0563940Y0313700D03*
X0564140Y0304700D03*
X0556660Y0304700D03*
X0564560Y0292500D03*
X0572040Y0292500D03*
X0572140Y0282700D03*
X0564660Y0282700D03*
X0596060Y0310900D03*
X0603540Y0310900D03*
X0623860Y0321400D03*
X0631340Y0321400D03*
X0631340Y0330900D03*
X0623860Y0330900D03*
X0624060Y0340500D03*
X0631540Y0340500D03*
X0631540Y0349600D03*
X0624060Y0349600D03*
X0624060Y0359000D03*
X0631540Y0359000D03*
X0631540Y0368100D03*
X0624060Y0368100D03*
X0624060Y0299900D03*
X0631540Y0299900D03*
X0631540Y0290500D03*
X0624060Y0290500D03*
X0466440Y0170300D03*
X0458960Y0170300D03*
X0429740Y0178000D03*
X0422260Y0178000D03*
X0411740Y0178000D03*
X0404260Y0178000D03*
X0393740Y0178000D03*
X0386260Y0178000D03*
X0375740Y0178000D03*
X0368260Y0178000D03*
X0357740Y0178000D03*
X0350260Y0178000D03*
X0339740Y0178000D03*
X0332260Y0178000D03*
X0321740Y0178000D03*
X0314260Y0178000D03*
X0303740Y0178000D03*
X0296260Y0178000D03*
X0296260Y0160300D03*
X0303740Y0160300D03*
X0314260Y0160400D03*
X0321740Y0160400D03*
X0332260Y0160300D03*
X0339740Y0160300D03*
X0350260Y0160300D03*
X0357740Y0160300D03*
X0368260Y0160300D03*
X0375740Y0160300D03*
X0386260Y0160300D03*
X0393740Y0160300D03*
X0404360Y0160300D03*
X0411840Y0160300D03*
X0422260Y0160300D03*
X0429740Y0160300D03*
X0431740Y0087100D03*
X0424260Y0087100D03*
X0424260Y0078100D03*
X0431740Y0078100D03*
X0559460Y0079400D03*
X0566940Y0079400D03*
X0566940Y0071900D03*
X0559460Y0071900D03*
X0559460Y0054400D03*
X0566940Y0054400D03*
X0588760Y0085900D03*
X0596240Y0085900D03*
X0593860Y0095000D03*
X0601340Y0095000D03*
X0567440Y0094900D03*
X0559960Y0094900D03*
X0268440Y0215300D03*
X0260960Y0215300D03*
X0253240Y0226500D03*
X0245760Y0226500D03*
X0245760Y0234000D03*
X0253240Y0234000D03*
X0260760Y0234000D03*
X0268240Y0234000D03*
X0268240Y0242000D03*
X0260760Y0242000D03*
X0253240Y0242000D03*
X0245760Y0242000D03*
X0229240Y0242500D03*
X0221760Y0242500D03*
X0221760Y0235000D03*
X0229240Y0235000D03*
X0229240Y0227500D03*
X0221760Y0227500D03*
X0213240Y0235000D03*
X0205760Y0235000D03*
X0205760Y0242500D03*
X0213240Y0242500D03*
X0213540Y0215000D03*
X0206060Y0215000D03*
X0213560Y0188600D03*
X0221040Y0188600D03*
X0252660Y0188600D03*
X0260140Y0188600D03*
X0177340Y0163800D03*
X0169860Y0163800D03*
X0172740Y0224000D03*
X0165260Y0224000D03*
X0165260Y0243000D03*
X0172740Y0243000D03*
X0172740Y0252500D03*
X0165260Y0252500D03*
X0168260Y0273300D03*
X0175740Y0273300D03*
X0169240Y0298200D03*
X0161760Y0298200D03*
X0161760Y0307500D03*
X0169240Y0307500D03*
X0183660Y0311100D03*
X0191140Y0311100D03*
X0201460Y0311000D03*
X0208940Y0311000D03*
X0243260Y0311200D03*
X0250740Y0311200D03*
X0261460Y0311200D03*
X0268940Y0311200D03*
X0262740Y0093500D03*
X0255260Y0093500D03*
X0248240Y0093500D03*
X0240760Y0093500D03*
X0240760Y0083500D03*
X0248240Y0083500D03*
X0248240Y0065500D03*
X0240760Y0065500D03*
D13*
X0080700Y0069060D03*
X0080700Y0076540D03*
X0080700Y0087060D03*
X0080700Y0094540D03*
X0132100Y0168960D03*
X0132100Y0176440D03*
X0132100Y0221960D03*
X0132100Y0229440D03*
X0131800Y0273960D03*
X0131800Y0281440D03*
X0131800Y0326560D03*
X0131800Y0334040D03*
X0212400Y0336940D03*
X0212400Y0329460D03*
X0229500Y0288740D03*
X0229500Y0281260D03*
X0237500Y0281260D03*
X0245500Y0281260D03*
X0245500Y0288740D03*
X0237500Y0288740D03*
X0271800Y0329660D03*
X0271800Y0337140D03*
X0295000Y0243240D03*
X0295000Y0235760D03*
X0304000Y0235760D03*
X0313000Y0235760D03*
X0322000Y0235760D03*
X0322000Y0243240D03*
X0313000Y0243240D03*
X0304000Y0243240D03*
X0331000Y0243240D03*
X0340000Y0243240D03*
X0349000Y0243240D03*
X0358000Y0243240D03*
X0358000Y0235760D03*
X0349000Y0235760D03*
X0340000Y0235760D03*
X0331000Y0235760D03*
X0332500Y0212740D03*
X0332500Y0205260D03*
X0295000Y0205260D03*
X0295000Y0212740D03*
X0268900Y0205840D03*
X0268900Y0198360D03*
X0206000Y0198260D03*
X0206000Y0205740D03*
X0234500Y0137740D03*
X0234500Y0130260D03*
X0242500Y0130240D03*
X0242500Y0122760D03*
X0250500Y0130260D03*
X0250500Y0137740D03*
X0267500Y0137740D03*
X0267500Y0130260D03*
X0259500Y0082240D03*
X0259500Y0074760D03*
X0372000Y0205260D03*
X0372000Y0212740D03*
X0376000Y0235760D03*
X0367000Y0235760D03*
X0367000Y0243240D03*
X0376000Y0243240D03*
X0385000Y0243240D03*
X0385000Y0235760D03*
X0394000Y0235760D03*
X0403000Y0235760D03*
X0412000Y0235760D03*
X0412000Y0243240D03*
X0403000Y0243240D03*
X0394000Y0243240D03*
X0421000Y0243240D03*
X0430000Y0243240D03*
X0430000Y0235760D03*
X0421000Y0235760D03*
X0409000Y0212740D03*
X0409000Y0205260D03*
X0522700Y0158140D03*
X0522700Y0150660D03*
X0569800Y0154360D03*
X0569800Y0161840D03*
X0569800Y0143640D03*
X0569800Y0136160D03*
X0584600Y0114440D03*
X0584600Y0106960D03*
X0615800Y0085740D03*
X0615800Y0078260D03*
X0571000Y0182260D03*
X0571000Y0189740D03*
X0547600Y0337960D03*
X0547600Y0345440D03*
X0475300Y0344940D03*
X0475300Y0337460D03*
D14*
X0535951Y0143500D03*
X0554849Y0143500D03*
D15*
X0203700Y0133249D03*
X0203700Y0114351D03*
X0099200Y0112851D03*
X0099200Y0096249D03*
X0099200Y0077351D03*
X0099200Y0131749D03*
D16*
X0164020Y0215000D03*
X0178980Y0215000D03*
X0178980Y0233500D03*
X0164020Y0233500D03*
X0168520Y0282000D03*
X0168520Y0290000D03*
X0183480Y0290000D03*
X0183480Y0282000D03*
X0243020Y0146000D03*
X0257980Y0146000D03*
X0259000Y0137480D03*
X0259000Y0122520D03*
X0250980Y0074500D03*
X0257020Y0065500D03*
X0271980Y0065500D03*
X0236020Y0074500D03*
X0418520Y0096100D03*
X0433480Y0096100D03*
X0493920Y0042600D03*
X0508880Y0042600D03*
X0552220Y0063400D03*
X0567180Y0063400D03*
X0576200Y0063880D03*
X0576200Y0048920D03*
X0600720Y0224100D03*
X0615680Y0224100D03*
X0627400Y0233620D03*
X0627400Y0248580D03*
D17*
X0165200Y0084800D03*
D18*
X0165200Y0117600D03*
X0158500Y0117600D03*
X0151800Y0117600D03*
X0171900Y0117600D03*
X0178600Y0117600D03*
D19*
X0194200Y0077800D03*
X0194200Y0065800D03*
D20*
X0127700Y0070572D03*
X0127700Y0092028D03*
X0127700Y0109572D03*
X0127700Y0131028D03*
D21*
X0534489Y0181600D03*
X0558111Y0181600D03*
D22*
X0585300Y0167250D03*
X0590300Y0167250D03*
X0595300Y0167250D03*
X0600300Y0167250D03*
X0600300Y0128550D03*
X0595300Y0128550D03*
X0590300Y0128550D03*
X0585300Y0128550D03*
D23*
X0519100Y0135425D02*
X0519100Y0140575D01*
X0509100Y0140575D02*
X0509100Y0135425D01*
X0499100Y0135425D02*
X0499100Y0140575D01*
X0489100Y0140575D02*
X0489100Y0135425D01*
X0479100Y0135425D02*
X0479100Y0140575D01*
X0469100Y0140575D02*
X0469100Y0135425D01*
X0459100Y0135425D02*
X0459100Y0140575D01*
X0449100Y0140575D02*
X0449100Y0135425D01*
X0449100Y0185425D02*
X0449100Y0190575D01*
X0459100Y0190575D02*
X0459100Y0185425D01*
X0469100Y0185425D02*
X0469100Y0190575D01*
X0479100Y0190575D02*
X0479100Y0185425D01*
X0489100Y0185425D02*
X0489100Y0190575D01*
X0499100Y0190575D02*
X0499100Y0185425D01*
X0509100Y0185425D02*
X0509100Y0190575D01*
X0519100Y0190575D02*
X0519100Y0185425D01*
D24*
X0519000Y0116500D03*
X0509000Y0116500D03*
X0499000Y0116500D03*
X0489000Y0116500D03*
X0479000Y0116500D03*
X0469000Y0116500D03*
X0459000Y0116500D03*
X0449000Y0116500D03*
X0439000Y0116500D03*
X0429000Y0116500D03*
X0419000Y0116500D03*
X0409000Y0116500D03*
X0399000Y0116500D03*
X0389000Y0116500D03*
X0379000Y0116500D03*
X0369000Y0116500D03*
X0359000Y0116500D03*
X0349000Y0116500D03*
X0339000Y0116500D03*
X0329000Y0116500D03*
X0319000Y0116500D03*
X0309000Y0116500D03*
X0299000Y0116500D03*
X0349000Y0106500D03*
X0349000Y0096500D03*
X0349000Y0086500D03*
X0349000Y0076500D03*
X0349000Y0066500D03*
X0349000Y0056500D03*
X0339000Y0056500D03*
X0329000Y0056500D03*
X0319000Y0056500D03*
X0309000Y0056500D03*
X0299000Y0056500D03*
X0359000Y0056500D03*
X0369000Y0056500D03*
X0379000Y0056500D03*
X0389000Y0056500D03*
X0399000Y0056500D03*
X0409000Y0056500D03*
X0419000Y0056500D03*
X0429000Y0056500D03*
X0439000Y0056500D03*
X0449000Y0056500D03*
X0459000Y0056500D03*
X0469000Y0056500D03*
X0479000Y0056500D03*
X0479000Y0066500D03*
X0489000Y0066500D03*
X0499000Y0066500D03*
X0499000Y0056500D03*
X0489000Y0056500D03*
X0509000Y0056500D03*
X0519000Y0056500D03*
X0519000Y0066500D03*
X0529000Y0056500D03*
X0504000Y0104000D03*
X0494000Y0104000D03*
X0484000Y0104000D03*
X0474000Y0104000D03*
X0464000Y0104000D03*
X0529000Y0116500D03*
D25*
X0379000Y0101500D03*
X0369000Y0101500D03*
X0359000Y0101500D03*
X0339000Y0101500D03*
X0329000Y0101500D03*
X0319000Y0101500D03*
X0309000Y0101500D03*
X0309000Y0071500D03*
X0319000Y0071500D03*
X0329000Y0071500D03*
X0339000Y0071500D03*
X0359000Y0071500D03*
X0369000Y0071500D03*
X0379000Y0071500D03*
D26*
X0246250Y0197409D03*
X0243750Y0197409D03*
X0241250Y0197409D03*
X0238750Y0197409D03*
X0236250Y0197409D03*
X0233750Y0197409D03*
X0231250Y0197409D03*
X0228750Y0197409D03*
X0228750Y0218591D03*
X0231250Y0218591D03*
X0233750Y0218591D03*
X0236250Y0218591D03*
X0238750Y0218591D03*
X0241250Y0218591D03*
X0243750Y0218591D03*
X0246250Y0218591D03*
D27*
X0253566Y0172900D03*
X0261834Y0172900D03*
X0295766Y0152400D03*
X0304034Y0152400D03*
X0313966Y0152400D03*
X0322234Y0152400D03*
X0332266Y0152500D03*
X0340534Y0152500D03*
X0349666Y0152500D03*
X0357934Y0152500D03*
X0367666Y0152400D03*
X0375934Y0152400D03*
X0385666Y0152400D03*
X0393934Y0152400D03*
X0404066Y0152500D03*
X0412334Y0152500D03*
X0422066Y0152500D03*
X0430334Y0152500D03*
X0454666Y0218700D03*
X0462934Y0218700D03*
X0494266Y0218700D03*
X0502534Y0218700D03*
X0524466Y0218700D03*
X0532734Y0218700D03*
X0564866Y0219100D03*
X0573134Y0219100D03*
X0572134Y0274100D03*
X0563866Y0274100D03*
X0531934Y0274300D03*
X0523666Y0274300D03*
X0501734Y0274000D03*
X0493466Y0274000D03*
X0462934Y0274200D03*
X0454666Y0274200D03*
X0221034Y0173000D03*
X0212766Y0173000D03*
X0145334Y0193700D03*
X0137066Y0193700D03*
X0136866Y0246100D03*
X0145134Y0246100D03*
X0145934Y0298300D03*
X0137666Y0298300D03*
X0137666Y0351100D03*
X0145934Y0351100D03*
X0080700Y0111434D03*
X0080700Y0103166D03*
D28*
X0306500Y0287343D03*
X0343500Y0287343D03*
X0380500Y0287343D03*
X0418500Y0287343D03*
X0418500Y0351343D03*
X0380500Y0351343D03*
X0343500Y0351343D03*
X0306500Y0351343D03*
X0456500Y0351343D03*
X0494000Y0351343D03*
X0529000Y0351343D03*
X0566000Y0351343D03*
D29*
X0557024Y0322602D03*
X0574976Y0322602D03*
X0537976Y0322602D03*
X0520024Y0322602D03*
X0502976Y0322602D03*
X0485024Y0322602D03*
X0465476Y0322602D03*
X0447524Y0322602D03*
X0427476Y0322602D03*
X0409524Y0322602D03*
X0389476Y0322602D03*
X0371524Y0322602D03*
X0352476Y0322602D03*
X0334524Y0322602D03*
X0315476Y0322602D03*
X0297524Y0322602D03*
X0297524Y0258602D03*
X0315476Y0258602D03*
X0334524Y0258602D03*
X0352476Y0258602D03*
X0371524Y0258602D03*
X0389476Y0258602D03*
X0409524Y0258602D03*
X0427476Y0258602D03*
D30*
X0194200Y0104174D03*
X0194200Y0088426D03*
D31*
X0185574Y0134300D03*
X0169826Y0134300D03*
X0165226Y0174800D03*
X0165226Y0187300D03*
X0180974Y0187300D03*
X0180974Y0174800D03*
D32*
X0593185Y0078240D03*
X0593185Y0074500D03*
X0593185Y0070760D03*
X0603815Y0070760D03*
X0603815Y0078240D03*
D33*
X0268024Y0263500D03*
X0245976Y0263500D03*
X0228524Y0263500D03*
X0206476Y0263500D03*
D34*
X0239588Y0356600D03*
X0250612Y0356600D03*
X0261488Y0356700D03*
X0272512Y0356700D03*
X0213112Y0356900D03*
X0202088Y0356900D03*
X0191512Y0356900D03*
X0180488Y0356900D03*
X0450888Y0249500D03*
X0461912Y0249500D03*
X0494688Y0249700D03*
X0505712Y0249700D03*
X0521188Y0249700D03*
X0532212Y0249700D03*
X0565888Y0249900D03*
X0576912Y0249900D03*
D35*
X0556700Y0236936D03*
X0551700Y0236936D03*
X0546700Y0236936D03*
X0541700Y0236936D03*
X0541700Y0216464D03*
X0546700Y0216464D03*
X0551700Y0216464D03*
X0556700Y0216464D03*
X0555500Y0271964D03*
X0550500Y0271964D03*
X0545500Y0271964D03*
X0540500Y0271964D03*
X0540500Y0292436D03*
X0545500Y0292436D03*
X0550500Y0292436D03*
X0555500Y0292436D03*
X0485200Y0292136D03*
X0480200Y0292136D03*
X0475200Y0292136D03*
X0470200Y0292136D03*
X0470200Y0271664D03*
X0475200Y0271664D03*
X0480200Y0271664D03*
X0485200Y0271664D03*
X0485500Y0236936D03*
X0480500Y0236936D03*
X0475500Y0236936D03*
X0470500Y0236936D03*
X0470500Y0216464D03*
X0475500Y0216464D03*
X0480500Y0216464D03*
X0485500Y0216464D03*
X0431500Y0214236D03*
X0426500Y0214236D03*
X0421500Y0214236D03*
X0416500Y0214236D03*
X0394500Y0214236D03*
X0389500Y0214236D03*
X0384500Y0214236D03*
X0379500Y0214236D03*
X0379500Y0193764D03*
X0384500Y0193764D03*
X0389500Y0193764D03*
X0394500Y0193764D03*
X0416500Y0193764D03*
X0421500Y0193764D03*
X0426500Y0193764D03*
X0431500Y0193764D03*
X0355000Y0193764D03*
X0350000Y0193764D03*
X0345000Y0193764D03*
X0340000Y0193764D03*
X0317500Y0193764D03*
X0312500Y0193764D03*
X0307500Y0193764D03*
X0302500Y0193764D03*
X0302500Y0214236D03*
X0307500Y0214236D03*
X0312500Y0214236D03*
X0317500Y0214236D03*
X0340000Y0214236D03*
X0345000Y0214236D03*
X0350000Y0214236D03*
X0355000Y0214236D03*
X0263500Y0323264D03*
X0258500Y0323264D03*
X0253500Y0323264D03*
X0248500Y0323264D03*
X0248500Y0343736D03*
X0253500Y0343736D03*
X0258500Y0343736D03*
X0263500Y0343736D03*
X0204000Y0343736D03*
X0199000Y0343736D03*
X0194000Y0343736D03*
X0189000Y0343736D03*
X0189000Y0323264D03*
X0194000Y0323264D03*
X0199000Y0323264D03*
X0204000Y0323264D03*
D36*
X0210200Y0101961D03*
X0210200Y0084639D03*
D37*
X0549994Y0102335D02*
X0557918Y0102335D01*
X0549994Y0102335D02*
X0549994Y0104865D01*
X0557918Y0104865D01*
X0557918Y0102335D01*
X0557918Y0102966D02*
X0549994Y0102966D01*
X0549994Y0103597D02*
X0557918Y0103597D01*
X0557918Y0104228D02*
X0549994Y0104228D01*
X0549994Y0104859D02*
X0557918Y0104859D01*
X0557918Y0107335D02*
X0549994Y0107335D01*
X0549994Y0109865D01*
X0557918Y0109865D01*
X0557918Y0107335D01*
X0557918Y0107966D02*
X0549994Y0107966D01*
X0549994Y0108597D02*
X0557918Y0108597D01*
X0557918Y0109228D02*
X0549994Y0109228D01*
X0549994Y0109859D02*
X0557918Y0109859D01*
X0557918Y0112335D02*
X0549994Y0112335D01*
X0549994Y0114865D01*
X0557918Y0114865D01*
X0557918Y0112335D01*
X0557918Y0112966D02*
X0549994Y0112966D01*
X0549994Y0113597D02*
X0557918Y0113597D01*
X0557918Y0114228D02*
X0549994Y0114228D01*
X0549994Y0114859D02*
X0557918Y0114859D01*
X0557918Y0117335D02*
X0549994Y0117335D01*
X0549994Y0119865D01*
X0557918Y0119865D01*
X0557918Y0117335D01*
X0557918Y0117966D02*
X0549994Y0117966D01*
X0549994Y0118597D02*
X0557918Y0118597D01*
X0557918Y0119228D02*
X0549994Y0119228D01*
X0549994Y0119859D02*
X0557918Y0119859D01*
X0569482Y0117335D02*
X0577406Y0117335D01*
X0569482Y0117335D02*
X0569482Y0119865D01*
X0577406Y0119865D01*
X0577406Y0117335D01*
X0577406Y0117966D02*
X0569482Y0117966D01*
X0569482Y0118597D02*
X0577406Y0118597D01*
X0577406Y0119228D02*
X0569482Y0119228D01*
X0569482Y0119859D02*
X0577406Y0119859D01*
X0577406Y0112335D02*
X0569482Y0112335D01*
X0569482Y0114865D01*
X0577406Y0114865D01*
X0577406Y0112335D01*
X0577406Y0112966D02*
X0569482Y0112966D01*
X0569482Y0113597D02*
X0577406Y0113597D01*
X0577406Y0114228D02*
X0569482Y0114228D01*
X0569482Y0114859D02*
X0577406Y0114859D01*
X0577406Y0107335D02*
X0569482Y0107335D01*
X0569482Y0109865D01*
X0577406Y0109865D01*
X0577406Y0107335D01*
X0577406Y0107966D02*
X0569482Y0107966D01*
X0569482Y0108597D02*
X0577406Y0108597D01*
X0577406Y0109228D02*
X0569482Y0109228D01*
X0569482Y0109859D02*
X0577406Y0109859D01*
X0577406Y0102335D02*
X0569482Y0102335D01*
X0569482Y0104865D01*
X0577406Y0104865D01*
X0577406Y0102335D01*
X0577406Y0102966D02*
X0569482Y0102966D01*
X0569482Y0103597D02*
X0577406Y0103597D01*
X0577406Y0104228D02*
X0569482Y0104228D01*
X0569482Y0104859D02*
X0577406Y0104859D01*
D38*
X0609151Y0290560D02*
X0609151Y0290560D01*
X0612105Y0290560D01*
X0612105Y0290560D01*
X0609151Y0290560D01*
X0600095Y0294300D02*
X0600095Y0294300D01*
X0603049Y0294300D01*
X0603049Y0294300D01*
X0600095Y0294300D01*
X0609151Y0298040D02*
X0609151Y0298040D01*
X0612105Y0298040D01*
X0612105Y0298040D01*
X0609151Y0298040D01*
X0609651Y0321360D02*
X0609651Y0321360D01*
X0612605Y0321360D01*
X0612605Y0321360D01*
X0609651Y0321360D01*
X0600595Y0325100D02*
X0600595Y0325100D01*
X0603549Y0325100D01*
X0603549Y0325100D01*
X0600595Y0325100D01*
X0609651Y0328840D02*
X0609651Y0328840D01*
X0612605Y0328840D01*
X0612605Y0328840D01*
X0609651Y0328840D01*
X0609351Y0339960D02*
X0609351Y0339960D01*
X0612305Y0339960D01*
X0612305Y0339960D01*
X0609351Y0339960D01*
X0600295Y0343700D02*
X0600295Y0343700D01*
X0603249Y0343700D01*
X0603249Y0343700D01*
X0600295Y0343700D01*
X0609351Y0347440D02*
X0609351Y0347440D01*
X0612305Y0347440D01*
X0612305Y0347440D01*
X0609351Y0347440D01*
X0609251Y0359560D02*
X0609251Y0359560D01*
X0612205Y0359560D01*
X0612205Y0359560D01*
X0609251Y0359560D01*
X0600195Y0363300D02*
X0600195Y0363300D01*
X0603149Y0363300D01*
X0603149Y0363300D01*
X0600195Y0363300D01*
X0609251Y0367040D02*
X0609251Y0367040D01*
X0612205Y0367040D01*
X0612205Y0367040D01*
X0609251Y0367040D01*
D39*
X0504244Y0398539D03*
X0494244Y0398539D03*
X0484244Y0398539D03*
X0474244Y0398539D03*
X0464244Y0398539D03*
X0454244Y0398539D03*
X0444244Y0398539D03*
X0434244Y0398539D03*
X0424244Y0398539D03*
X0414244Y0398539D03*
X0404244Y0398539D03*
X0394244Y0398539D03*
X0384244Y0398539D03*
X0374244Y0398539D03*
X0364244Y0398539D03*
X0354244Y0398539D03*
X0344244Y0398539D03*
X0334244Y0398539D03*
X0324244Y0398539D03*
X0324244Y0408539D03*
X0334244Y0408539D03*
X0344244Y0408539D03*
X0354244Y0408539D03*
X0364244Y0408539D03*
X0374244Y0408539D03*
X0384244Y0408539D03*
X0394244Y0408539D03*
X0404244Y0408539D03*
X0414244Y0408539D03*
X0424244Y0408539D03*
X0434244Y0408539D03*
X0444244Y0408539D03*
X0454244Y0408539D03*
X0464244Y0408539D03*
X0474244Y0408539D03*
X0484244Y0408539D03*
X0494244Y0408539D03*
X0504244Y0408539D03*
X0504283Y0432161D03*
X0494283Y0432161D03*
X0484283Y0432161D03*
X0474283Y0432161D03*
X0464283Y0432161D03*
X0454283Y0432161D03*
X0444283Y0432161D03*
X0434283Y0432161D03*
X0424283Y0432161D03*
X0414283Y0432161D03*
X0404283Y0432161D03*
X0394283Y0432161D03*
X0384283Y0432161D03*
X0374283Y0432161D03*
X0364283Y0432161D03*
X0354283Y0432161D03*
X0344283Y0432161D03*
X0334283Y0432161D03*
X0324283Y0432161D03*
X0324283Y0442161D03*
X0334283Y0442161D03*
X0344283Y0442161D03*
X0354283Y0442161D03*
X0364283Y0442161D03*
X0374283Y0442161D03*
X0384283Y0442161D03*
X0394283Y0442161D03*
X0404283Y0442161D03*
X0414283Y0442161D03*
X0424283Y0442161D03*
X0434283Y0442161D03*
X0444283Y0442161D03*
X0454283Y0442161D03*
X0464283Y0442161D03*
X0474283Y0442161D03*
X0484283Y0442161D03*
X0494283Y0442161D03*
X0504283Y0442161D03*
X0262000Y0442122D03*
X0252000Y0442122D03*
X0242000Y0442161D03*
X0232039Y0442161D03*
X0222118Y0442161D03*
X0212000Y0442122D03*
X0212039Y0432240D03*
X0222039Y0432122D03*
X0232039Y0432122D03*
X0242000Y0432122D03*
X0252039Y0432083D03*
X0262039Y0432122D03*
X0262000Y0408500D03*
X0252000Y0408500D03*
X0252000Y0398500D03*
X0262000Y0398500D03*
X0242000Y0398500D03*
X0232000Y0398500D03*
X0232000Y0408500D03*
X0242000Y0408500D03*
X0222000Y0408500D03*
X0212000Y0408500D03*
X0212000Y0398500D03*
X0222000Y0398500D03*
X0202000Y0398500D03*
X0192000Y0398500D03*
X0192000Y0408500D03*
X0202000Y0408500D03*
X0202000Y0432122D03*
X0191961Y0432083D03*
X0191843Y0442122D03*
X0202039Y0442161D03*
D40*
X0293457Y0451453D03*
X0087709Y0451492D03*
X0585740Y0451453D03*
D41*
X0558181Y0432161D03*
X0547866Y0421335D03*
X0535701Y0432122D03*
X0535740Y0398500D03*
X0558142Y0398500D03*
X0160504Y0398461D03*
X0136882Y0398500D03*
X0114835Y0398500D03*
X0126055Y0421728D03*
X0136882Y0432122D03*
X0148732Y0421728D03*
X0160504Y0432122D03*
X0114835Y0432122D03*
D42*
X0097945Y0419366D03*
X0577039Y0420232D03*
D43*
X0117484Y0346500D03*
X0117484Y0326500D03*
X0117484Y0294000D03*
X0117484Y0274000D03*
X0117484Y0241500D03*
X0117484Y0221500D03*
X0117484Y0189000D03*
X0117484Y0169000D03*
D44*
X0077720Y0179000D03*
X0077720Y0231500D03*
X0077720Y0284000D03*
X0077720Y0336500D03*
D45*
X0023400Y0333700D03*
X0023400Y0341200D03*
X0023400Y0348700D03*
X0023400Y0356200D03*
X0023400Y0363700D03*
X0023400Y0371200D03*
X0023400Y0378700D03*
X0023400Y0386200D03*
X0023400Y0393700D03*
X0023400Y0401200D03*
X0023400Y0408700D03*
X0023400Y0416200D03*
X0023400Y0326200D03*
X0023400Y0318700D03*
X0023400Y0311200D03*
X0023400Y0303700D03*
X0023400Y0296200D03*
X0023400Y0288700D03*
X0023400Y0281200D03*
X0023400Y0273700D03*
X0023400Y0266200D03*
X0023400Y0258700D03*
X0023400Y0251200D03*
X0023400Y0243700D03*
X0023400Y0236200D03*
X0023400Y0228700D03*
X0023400Y0221200D03*
X0023400Y0213700D03*
X0023400Y0206200D03*
X0023400Y0198700D03*
X0023400Y0191200D03*
X0023400Y0183700D03*
X0023400Y0176200D03*
X0023400Y0168700D03*
X0023400Y0161200D03*
X0023400Y0153700D03*
X0023400Y0146200D03*
X0023400Y0138700D03*
X0023400Y0131200D03*
X0023400Y0123700D03*
X0023400Y0116200D03*
X0023400Y0108700D03*
X0023400Y0101200D03*
X0023400Y0093700D03*
X0023400Y0086200D03*
X0023400Y0078700D03*
X0179800Y0468700D03*
X0187300Y0468700D03*
X0194800Y0468700D03*
X0202300Y0468700D03*
X0209800Y0468700D03*
X0217300Y0468700D03*
X0224800Y0468700D03*
X0232300Y0468700D03*
X0239800Y0468700D03*
X0247300Y0468700D03*
X0254800Y0468700D03*
X0262300Y0468700D03*
X0269800Y0468700D03*
X0277300Y0468700D03*
X0284800Y0468700D03*
X0292300Y0468700D03*
X0299800Y0468700D03*
X0307300Y0468700D03*
X0314800Y0468700D03*
X0322300Y0468700D03*
X0329800Y0468700D03*
X0337300Y0468700D03*
X0344800Y0468700D03*
X0352300Y0468700D03*
X0359800Y0468700D03*
X0367300Y0468700D03*
X0374800Y0468700D03*
X0382300Y0468700D03*
X0389800Y0468700D03*
X0397300Y0468700D03*
X0404800Y0468700D03*
X0412300Y0468700D03*
X0419800Y0468700D03*
X0427300Y0468700D03*
X0434800Y0468700D03*
X0442300Y0468700D03*
X0449800Y0468700D03*
X0457300Y0468700D03*
X0464800Y0468700D03*
X0472300Y0468700D03*
X0479800Y0468700D03*
X0487300Y0468700D03*
X0494800Y0468700D03*
X0502300Y0468700D03*
X0509800Y0468700D03*
X0517300Y0468700D03*
X0650900Y0413700D03*
X0650900Y0406200D03*
X0650900Y0398700D03*
X0650900Y0391200D03*
X0650900Y0383700D03*
X0650900Y0376200D03*
X0650900Y0368700D03*
X0650900Y0361200D03*
X0650900Y0353700D03*
X0650900Y0346200D03*
X0650900Y0338700D03*
X0650900Y0331200D03*
X0650900Y0323700D03*
X0650900Y0316200D03*
X0650900Y0308700D03*
X0650900Y0301200D03*
X0650900Y0293700D03*
X0650900Y0286200D03*
X0650900Y0278700D03*
X0650900Y0271200D03*
X0650900Y0263700D03*
X0650900Y0256200D03*
X0650900Y0248700D03*
X0650900Y0241200D03*
X0650900Y0233700D03*
X0650900Y0226200D03*
X0650900Y0218700D03*
X0650900Y0211200D03*
X0650900Y0203700D03*
X0650900Y0196200D03*
X0650900Y0188700D03*
X0650900Y0181200D03*
X0650900Y0173700D03*
X0650900Y0166200D03*
X0650900Y0158700D03*
X0650900Y0151200D03*
X0650900Y0143700D03*
X0650900Y0136200D03*
X0650900Y0128700D03*
X0650900Y0121200D03*
X0650900Y0113700D03*
X0650900Y0106200D03*
X0650900Y0098700D03*
X0650900Y0091200D03*
X0650900Y0083700D03*
X0650900Y0076200D03*
D46*
X0380800Y0310900D03*
D47*
X0456600Y0263700D03*
X0511400Y0257700D03*
X0519000Y0258100D03*
X0582600Y0258300D03*
X0426200Y0143900D03*
X0417000Y0086700D03*
X0439400Y0086700D03*
X0194000Y0116500D03*
X0094000Y0171500D03*
X0086500Y0171500D03*
X0079000Y0171500D03*
X0071500Y0171500D03*
X0064000Y0171500D03*
X0064000Y0179000D03*
X0064000Y0186500D03*
X0071500Y0186500D03*
X0071500Y0179000D03*
X0079000Y0179000D03*
X0079000Y0186500D03*
X0086500Y0186500D03*
X0086500Y0179000D03*
X0094000Y0179000D03*
X0094000Y0186500D03*
X0094000Y0224000D03*
X0094000Y0231500D03*
X0086500Y0231500D03*
X0086500Y0224000D03*
X0079000Y0224000D03*
X0079000Y0231500D03*
X0071500Y0231500D03*
X0071500Y0224000D03*
X0064000Y0224000D03*
X0064000Y0231500D03*
X0064000Y0239000D03*
X0071500Y0239000D03*
X0079000Y0239000D03*
X0086500Y0239000D03*
X0094000Y0239000D03*
X0094000Y0276500D03*
X0086500Y0276500D03*
X0079000Y0276500D03*
X0071500Y0276500D03*
X0064000Y0276500D03*
X0064000Y0284000D03*
X0064000Y0291500D03*
X0071500Y0291500D03*
X0071500Y0284000D03*
X0079000Y0284000D03*
X0079000Y0291500D03*
X0086500Y0291500D03*
X0086500Y0284000D03*
X0094000Y0284000D03*
X0094000Y0291500D03*
X0094000Y0329000D03*
X0094000Y0336500D03*
X0086500Y0336500D03*
X0086500Y0329000D03*
X0079000Y0329000D03*
X0079000Y0336500D03*
X0071500Y0336500D03*
X0071500Y0329000D03*
X0064000Y0329000D03*
X0064000Y0336500D03*
X0064000Y0344000D03*
X0071500Y0344000D03*
X0079000Y0344000D03*
X0086500Y0344000D03*
X0094000Y0344000D03*
D48*
X0194000Y0049000D03*
M02*
