G75*
%MOIN*%
%OFA0B0*%
%FSLAX25Y25*%
%IPPOS*%
%LPD*%
%AMOC8*
5,1,8,0,0,1.08239X$1,22.5*
%
%ADD10C,0.05950*%
%ADD11C,0.06600*%
%ADD12C,0.06737*%
%ADD13C,0.05950*%
%ADD14C,0.14580*%
%ADD15C,0.08477*%
%ADD16C,0.09461*%
%ADD17C,0.05156*%
%ADD18C,0.06115*%
%ADD19C,0.04762*%
%ADD20C,0.05550*%
D10*
X0449100Y0135425D02*
X0449100Y0140575D01*
X0459100Y0140575D02*
X0459100Y0135425D01*
X0469100Y0135425D02*
X0469100Y0140575D01*
X0479100Y0140575D02*
X0479100Y0135425D01*
X0489100Y0135425D02*
X0489100Y0140575D01*
X0499100Y0140575D02*
X0499100Y0135425D01*
X0509100Y0135425D02*
X0509100Y0140575D01*
X0519100Y0140575D02*
X0519100Y0135425D01*
X0519100Y0185425D02*
X0519100Y0190575D01*
X0509100Y0190575D02*
X0509100Y0185425D01*
X0499100Y0185425D02*
X0499100Y0190575D01*
X0489100Y0190575D02*
X0489100Y0185425D01*
X0479100Y0185425D02*
X0479100Y0190575D01*
X0469100Y0190575D02*
X0469100Y0185425D01*
X0459100Y0185425D02*
X0459100Y0190575D01*
X0449100Y0190575D02*
X0449100Y0185425D01*
D11*
X0449000Y0116500D03*
X0459000Y0116500D03*
X0469000Y0116500D03*
X0479000Y0116500D03*
X0489000Y0116500D03*
X0499000Y0116500D03*
X0509000Y0116500D03*
X0519000Y0116500D03*
X0529000Y0116500D03*
X0504000Y0104000D03*
X0494000Y0104000D03*
X0484000Y0104000D03*
X0474000Y0104000D03*
X0464000Y0104000D03*
X0439000Y0116500D03*
X0429000Y0116500D03*
X0419000Y0116500D03*
X0409000Y0116500D03*
X0399000Y0116500D03*
X0389000Y0116500D03*
X0379000Y0116500D03*
X0369000Y0116500D03*
X0359000Y0116500D03*
X0349000Y0116500D03*
X0339000Y0116500D03*
X0329000Y0116500D03*
X0319000Y0116500D03*
X0309000Y0116500D03*
X0299000Y0116500D03*
X0349000Y0106500D03*
X0349000Y0096500D03*
X0349000Y0086500D03*
X0349000Y0076500D03*
X0349000Y0066500D03*
X0349000Y0056500D03*
X0339000Y0056500D03*
X0329000Y0056500D03*
X0319000Y0056500D03*
X0309000Y0056500D03*
X0299000Y0056500D03*
X0359000Y0056500D03*
X0369000Y0056500D03*
X0379000Y0056500D03*
X0389000Y0056500D03*
X0399000Y0056500D03*
X0409000Y0056500D03*
X0419000Y0056500D03*
X0429000Y0056500D03*
X0439000Y0056500D03*
X0449000Y0056500D03*
X0459000Y0056500D03*
X0469000Y0056500D03*
X0479000Y0056500D03*
X0479000Y0066500D03*
X0489000Y0066500D03*
X0499000Y0066500D03*
X0499000Y0056500D03*
X0489000Y0056500D03*
X0509000Y0056500D03*
X0519000Y0056500D03*
X0519000Y0066500D03*
X0529000Y0056500D03*
D12*
X0379000Y0071500D03*
X0369000Y0071500D03*
X0359000Y0071500D03*
X0339000Y0071500D03*
X0329000Y0071500D03*
X0319000Y0071500D03*
X0309000Y0071500D03*
X0309000Y0101500D03*
X0319000Y0101500D03*
X0329000Y0101500D03*
X0339000Y0101500D03*
X0359000Y0101500D03*
X0369000Y0101500D03*
X0379000Y0101500D03*
D13*
X0374244Y0398539D03*
X0384244Y0398539D03*
X0394244Y0398539D03*
X0404244Y0398539D03*
X0414244Y0398539D03*
X0424244Y0398539D03*
X0434244Y0398539D03*
X0444244Y0398539D03*
X0454244Y0398539D03*
X0464244Y0398539D03*
X0474244Y0398539D03*
X0484244Y0398539D03*
X0494244Y0398539D03*
X0504244Y0398539D03*
X0504244Y0408539D03*
X0494244Y0408539D03*
X0484244Y0408539D03*
X0474244Y0408539D03*
X0464244Y0408539D03*
X0454244Y0408539D03*
X0444244Y0408539D03*
X0434244Y0408539D03*
X0424244Y0408539D03*
X0414244Y0408539D03*
X0404244Y0408539D03*
X0394244Y0408539D03*
X0384244Y0408539D03*
X0374244Y0408539D03*
X0364244Y0408539D03*
X0354244Y0408539D03*
X0354244Y0398539D03*
X0364244Y0398539D03*
X0344244Y0398539D03*
X0334244Y0398539D03*
X0324244Y0398539D03*
X0324244Y0408539D03*
X0334244Y0408539D03*
X0344244Y0408539D03*
X0344283Y0432161D03*
X0334283Y0432161D03*
X0324283Y0432161D03*
X0324283Y0442161D03*
X0334283Y0442161D03*
X0344283Y0442161D03*
X0354283Y0442161D03*
X0364283Y0442161D03*
X0364283Y0432161D03*
X0354283Y0432161D03*
X0374283Y0432161D03*
X0384283Y0432161D03*
X0384283Y0442161D03*
X0374283Y0442161D03*
X0394283Y0442161D03*
X0404283Y0442161D03*
X0404283Y0432161D03*
X0394283Y0432161D03*
X0414283Y0432161D03*
X0424283Y0432161D03*
X0424283Y0442161D03*
X0414283Y0442161D03*
X0434283Y0442161D03*
X0444283Y0442161D03*
X0444283Y0432161D03*
X0434283Y0432161D03*
X0454283Y0432161D03*
X0464283Y0432161D03*
X0464283Y0442161D03*
X0454283Y0442161D03*
X0474283Y0442161D03*
X0484283Y0442161D03*
X0484283Y0432161D03*
X0474283Y0432161D03*
X0494283Y0432161D03*
X0504283Y0432161D03*
X0504283Y0442161D03*
X0494283Y0442161D03*
X0262000Y0442122D03*
X0252000Y0442122D03*
X0242000Y0442161D03*
X0232039Y0442161D03*
X0222118Y0442161D03*
X0212000Y0442122D03*
X0212039Y0432240D03*
X0222039Y0432122D03*
X0232039Y0432122D03*
X0242000Y0432122D03*
X0252039Y0432083D03*
X0262039Y0432122D03*
X0262000Y0408500D03*
X0252000Y0408500D03*
X0252000Y0398500D03*
X0262000Y0398500D03*
X0242000Y0398500D03*
X0232000Y0398500D03*
X0232000Y0408500D03*
X0242000Y0408500D03*
X0222000Y0408500D03*
X0212000Y0408500D03*
X0212000Y0398500D03*
X0222000Y0398500D03*
X0202000Y0398500D03*
X0192000Y0398500D03*
X0192000Y0408500D03*
X0202000Y0408500D03*
X0202000Y0432122D03*
X0191961Y0432083D03*
X0191843Y0442122D03*
X0202039Y0442161D03*
D14*
X0293457Y0451453D03*
X0087709Y0451492D03*
X0585740Y0451453D03*
D15*
X0558181Y0432161D03*
X0547866Y0421335D03*
X0535701Y0432122D03*
X0535740Y0398500D03*
X0558142Y0398500D03*
X0160504Y0398461D03*
X0136882Y0398500D03*
X0114835Y0398500D03*
X0126055Y0421728D03*
X0136882Y0432122D03*
X0148732Y0421728D03*
X0160504Y0432122D03*
X0114835Y0432122D03*
D16*
X0097945Y0419366D03*
X0577039Y0420232D03*
D17*
X0023400Y0078700D03*
X0023400Y0086200D03*
X0023400Y0093700D03*
X0023400Y0101200D03*
X0023400Y0108700D03*
X0023400Y0116200D03*
X0023400Y0123700D03*
X0023400Y0131200D03*
X0023400Y0138700D03*
X0023400Y0146200D03*
X0023400Y0153700D03*
X0023400Y0161200D03*
X0023400Y0168700D03*
X0023400Y0176200D03*
X0023400Y0183700D03*
X0023400Y0191200D03*
X0023400Y0198700D03*
X0023400Y0206200D03*
X0023400Y0213700D03*
X0023400Y0221200D03*
X0023400Y0228700D03*
X0023400Y0236200D03*
X0023400Y0243700D03*
X0023400Y0251200D03*
X0023400Y0258700D03*
X0023400Y0266200D03*
X0023400Y0273700D03*
X0023400Y0281200D03*
X0023400Y0288700D03*
X0023400Y0296200D03*
X0023400Y0303700D03*
X0023400Y0311200D03*
X0023400Y0318700D03*
X0023400Y0326200D03*
X0023400Y0333700D03*
X0023400Y0341200D03*
X0023400Y0348700D03*
X0023400Y0356200D03*
X0023400Y0363700D03*
X0023400Y0371200D03*
X0023400Y0378700D03*
X0023400Y0386200D03*
X0023400Y0393700D03*
X0023400Y0401200D03*
X0023400Y0408700D03*
X0023400Y0416200D03*
X0179800Y0468700D03*
X0187300Y0468700D03*
X0194800Y0468700D03*
X0202300Y0468700D03*
X0209800Y0468700D03*
X0217300Y0468700D03*
X0224800Y0468700D03*
X0232300Y0468700D03*
X0239800Y0468700D03*
X0247300Y0468700D03*
X0254800Y0468700D03*
X0262300Y0468700D03*
X0269800Y0468700D03*
X0277300Y0468700D03*
X0284800Y0468700D03*
X0292300Y0468700D03*
X0299800Y0468700D03*
X0307300Y0468700D03*
X0314800Y0468700D03*
X0322300Y0468700D03*
X0329800Y0468700D03*
X0337300Y0468700D03*
X0344800Y0468700D03*
X0352300Y0468700D03*
X0359800Y0468700D03*
X0367300Y0468700D03*
X0374800Y0468700D03*
X0382300Y0468700D03*
X0389800Y0468700D03*
X0397300Y0468700D03*
X0404800Y0468700D03*
X0412300Y0468700D03*
X0419800Y0468700D03*
X0427300Y0468700D03*
X0434800Y0468700D03*
X0442300Y0468700D03*
X0449800Y0468700D03*
X0457300Y0468700D03*
X0464800Y0468700D03*
X0472300Y0468700D03*
X0479800Y0468700D03*
X0487300Y0468700D03*
X0494800Y0468700D03*
X0502300Y0468700D03*
X0509800Y0468700D03*
X0517300Y0468700D03*
X0650900Y0413700D03*
X0650900Y0406200D03*
X0650900Y0398700D03*
X0650900Y0391200D03*
X0650900Y0383700D03*
X0650900Y0376200D03*
X0650900Y0368700D03*
X0650900Y0361200D03*
X0650900Y0353700D03*
X0650900Y0346200D03*
X0650900Y0338700D03*
X0650900Y0331200D03*
X0650900Y0323700D03*
X0650900Y0316200D03*
X0650900Y0308700D03*
X0650900Y0301200D03*
X0650900Y0293700D03*
X0650900Y0286200D03*
X0650900Y0278700D03*
X0650900Y0271200D03*
X0650900Y0263700D03*
X0650900Y0256200D03*
X0650900Y0248700D03*
X0650900Y0241200D03*
X0650900Y0233700D03*
X0650900Y0226200D03*
X0650900Y0218700D03*
X0650900Y0211200D03*
X0650900Y0203700D03*
X0650900Y0196200D03*
X0650900Y0188700D03*
X0650900Y0181200D03*
X0650900Y0173700D03*
X0650900Y0166200D03*
X0650900Y0158700D03*
X0650900Y0151200D03*
X0650900Y0143700D03*
X0650900Y0136200D03*
X0650900Y0128700D03*
X0650900Y0121200D03*
X0650900Y0113700D03*
X0650900Y0106200D03*
X0650900Y0098700D03*
X0650900Y0091200D03*
X0650900Y0083700D03*
X0650900Y0076200D03*
D18*
X0380800Y0310900D03*
D19*
X0456600Y0263700D03*
X0511400Y0257700D03*
X0519000Y0258100D03*
X0582600Y0258300D03*
X0426200Y0143900D03*
X0417000Y0086700D03*
X0439400Y0086700D03*
X0194000Y0116500D03*
X0094000Y0171500D03*
X0086500Y0171500D03*
X0079000Y0171500D03*
X0071500Y0171500D03*
X0064000Y0171500D03*
X0064000Y0179000D03*
X0064000Y0186500D03*
X0071500Y0186500D03*
X0071500Y0179000D03*
X0079000Y0179000D03*
X0079000Y0186500D03*
X0086500Y0186500D03*
X0086500Y0179000D03*
X0094000Y0179000D03*
X0094000Y0186500D03*
X0094000Y0224000D03*
X0094000Y0231500D03*
X0086500Y0231500D03*
X0086500Y0224000D03*
X0079000Y0224000D03*
X0079000Y0231500D03*
X0071500Y0231500D03*
X0071500Y0224000D03*
X0064000Y0224000D03*
X0064000Y0231500D03*
X0064000Y0239000D03*
X0071500Y0239000D03*
X0079000Y0239000D03*
X0086500Y0239000D03*
X0094000Y0239000D03*
X0094000Y0276500D03*
X0086500Y0276500D03*
X0079000Y0276500D03*
X0071500Y0276500D03*
X0064000Y0276500D03*
X0064000Y0284000D03*
X0064000Y0291500D03*
X0071500Y0291500D03*
X0071500Y0284000D03*
X0079000Y0284000D03*
X0079000Y0291500D03*
X0086500Y0291500D03*
X0086500Y0284000D03*
X0094000Y0284000D03*
X0094000Y0291500D03*
X0094000Y0329000D03*
X0094000Y0336500D03*
X0086500Y0336500D03*
X0086500Y0329000D03*
X0079000Y0329000D03*
X0079000Y0336500D03*
X0071500Y0336500D03*
X0071500Y0329000D03*
X0064000Y0329000D03*
X0064000Y0336500D03*
X0064000Y0344000D03*
X0071500Y0344000D03*
X0079000Y0344000D03*
X0086500Y0344000D03*
X0094000Y0344000D03*
D20*
X0194000Y0049000D03*
M02*
